<svg width="512" height="512" viewBox="0 0 100 100" xmlns="http://www.w3.org/2000/svg" role="img">
  <title>LoxMQ</title>
  <desc>LoxMQ application icon — Loxone smart home with circuit pattern interior, central hexagonal hub, and wireless connectivity pips.</desc>

  <g transform="translate(10, 20)">
    <!-- Subtle filled halo behind the house silhouette -->
    <path d="M 2,43 L 40,10 L 78,43 L 78,70 L 2,70 Z" fill="#10B981" opacity="0.10"/>
    <!-- House silhouette: thick green outline, no fill -->
    <path d="M 2,43 L 40,10 L 78,43 L 78,70 L 2,70 Z"
          fill="none" stroke="#10B981" stroke-width="4"
          stroke-linejoin="round" stroke-linecap="round"/>
    <!-- Cyan signal pips above the roof apex (wireless connectivity) -->
    <circle cx="40" cy="3"  r="2.5" fill="#06B6D4"/>
    <circle cx="40" cy="-3" r="2.5" fill="#06B6D4" opacity="0.55"/>
    <circle cx="40" cy="-9" r="2.5" fill="#06B6D4" opacity="0.28"/>
    <!-- Central hexagonal hub (signal processor) -->
    <path d="M 40,46.5 L 43.46,48.5 L 43.46,52.5 L 40,54.5 L 36.54,52.5 L 36.54,48.5 Z"
          fill="none" stroke="#10B981" stroke-width="1.5" stroke-linejoin="round"/>
    <!-- Top trace (straight) -->
    <line x1="40" y1="46.5" x2="40" y2="42" stroke="#10B981" stroke-width="1.2"/>
    <circle cx="40" cy="40.5" r="1.3" fill="#10B981"/>
    <!-- Upper-right trace (L-bend) -->
    <polyline points="43.46,48.5 55,48.5 55,44" fill="none" stroke="#10B981" stroke-width="1.2" stroke-linejoin="round"/>
    <circle cx="55" cy="43" r="1.3" fill="#10B981"/>
    <!-- Lower-right trace (L-bend) -->
    <polyline points="43.46,52.5 55,52.5 55,57" fill="none" stroke="#10B981" stroke-width="1.2" stroke-linejoin="round"/>
    <circle cx="55" cy="58" r="1.3" fill="#10B981"/>
    <!-- Bottom trace (straight) -->
    <line x1="40" y1="54.5" x2="40" y2="59" stroke="#10B981" stroke-width="1.2"/>
    <circle cx="40" cy="60.5" r="1.3" fill="#10B981"/>
    <!-- Lower-left trace (L-bend) -->
    <polyline points="36.54,52.5 25,52.5 25,57" fill="none" stroke="#10B981" stroke-width="1.2" stroke-linejoin="round"/>
    <circle cx="25" cy="58" r="1.3" fill="#10B981"/>
    <!-- Upper-left trace (L-bend) -->
    <polyline points="36.54,48.5 25,48.5 25,44" fill="none" stroke="#10B981" stroke-width="1.2" stroke-linejoin="round"/>
    <circle cx="25" cy="43" r="1.3" fill="#10B981"/>
  </g>
</svg>
